HIERARCHY
ROOT joint_Root
{
	OFFSET 0.0 0.0 0.0
	CHANNELS 6 Xposition Yposition Zposition Zrotation Xrotation Yrotation 
	JOINT Hips
	{
		OFFSET -0.726466 93.3139 -2.00062
		CHANNELS 6 Xposition Yposition Zposition Zrotation Xrotation Yrotation 
		JOINT Spine
		{
			OFFSET 15.7357 0.0 0.0
			CHANNELS 6 Xposition Yposition Zposition Zrotation Xrotation Yrotation 
			JOINT Chest
			{
				OFFSET 8.98455 -0.406207 0.0
				CHANNELS 6 Xposition Yposition Zposition Zrotation Xrotation Yrotation 
				JOINT Neck
				{
					OFFSET 16.3773 0.0 0.0
					CHANNELS 6 Xposition Yposition Zposition Zrotation Xrotation Yrotation 
					JOINT Head
					{
						OFFSET 6.45672 0.0 0.0
						CHANNELS 6 Xposition Yposition Zposition Zrotation Xrotation Yrotation 
						End Site
						{
							OFFSET 0.0 0.0 0.0
						}
					}
				}
				JOINT Shoulder_L
				{
					OFFSET 12.9942 -0.242716 4.98039
					CHANNELS 6 Xposition Yposition Zposition Zrotation Xrotation Yrotation 
					JOINT UpperArm_L
					{
						OFFSET 5.34809 0.0 0.0
						CHANNELS 6 Xposition Yposition Zposition Zrotation Xrotation Yrotation 
						JOINT LowerArm_L
						{
							OFFSET 24.3286 1.87007e-05 0.0
							CHANNELS 6 Xposition Yposition Zposition Zrotation Xrotation Yrotation 
							JOINT Hand_L
							{
								OFFSET 22.2916 0.0 0.0
								CHANNELS 6 Xposition Yposition Zposition Zrotation Xrotation Yrotation 
								End Site
								{
									OFFSET 0.0 0.0 0.0
								}
							}
						}
					}
				}
				JOINT Shoulder_R
				{
					OFFSET 12.9945 -0.242716 -4.98039
					CHANNELS 6 Xposition Yposition Zposition Zrotation Xrotation Yrotation 
					JOINT UpperArm_R
					{
						OFFSET -5.34813 0.0 0.0
						CHANNELS 6 Xposition Yposition Zposition Zrotation Xrotation Yrotation 
						JOINT LowerArm_R
						{
							OFFSET -24.3289 0.000322201 0.0
							CHANNELS 6 Xposition Yposition Zposition Zrotation Xrotation Yrotation 
							JOINT Hand_R
							{
								OFFSET -22.2915 -0.000108084 0.0
								CHANNELS 6 Xposition Yposition Zposition Zrotation Xrotation Yrotation 
								End Site
								{
									OFFSET 0.0 0.0 0.0
								}
							}
						}
					}
				}
			}
		}
		JOINT UpperLeg_L
		{
			OFFSET -2.19248 -6.46944 0.0
			CHANNELS 6 Xposition Yposition Zposition Zrotation Xrotation Yrotation 
			JOINT LowerLeg_L
			{
				OFFSET 39.0811 0.0 -1.23785e-05
				CHANNELS 6 Xposition Yposition Zposition Zrotation Xrotation Yrotation 
				JOINT Foot_L
				{
					OFFSET 40.9854 0.0 -1.26872e-05
					CHANNELS 6 Xposition Yposition Zposition Zrotation Xrotation Yrotation 
					JOINT Toes_L
					{
						OFFSET 11.7543 0.0 0.0
						CHANNELS 6 Xposition Yposition Zposition Zrotation Xrotation Yrotation 
						End Site
						{
							OFFSET 0.0 0.0 0.0
						}
					}
				}
			}
		}
		JOINT UpperLeg_R
		{
			OFFSET -2.19251 6.46944 0.0
			CHANNELS 6 Xposition Yposition Zposition Zrotation Xrotation Yrotation 
			JOINT LowerLeg_R
			{
				OFFSET -39.0811 -0.00228153 -0.0401928
				CHANNELS 6 Xposition Yposition Zposition Zrotation Xrotation Yrotation 
				JOINT Foot_R
				{
					OFFSET -40.9854 0.0 0.0
					CHANNELS 6 Xposition Yposition Zposition Zrotation Xrotation Yrotation 
					JOINT Toes_R
					{
						OFFSET -11.7543 0.0 0.0
						CHANNELS 6 Xposition Yposition Zposition Zrotation Xrotation Yrotation 
						End Site
						{
							OFFSET 0.0 0.0 0.0
						}
					}
				}
			}
		}
	}
}
MOTION
Frames:	4
Frame Time:	0.0333333
0.000000 0.000000 0.000000 0.000000 0.000000 -0.000000 -0.644558 92.254000 -1.447800 87.905500 0.220750 2.254910 15.735700 0.000005 -0.000001 83.322300 87.179600 -83.217200 8.984550 -0.406207 -0.000000 -2.162920 -0.664861 0.197734 16.377300 -0.000001 -0.000001 1.219920 -2.413840 -0.564133 6.456720 -0.000001 -0.000000 -3.756870 -3.119330 5.583450 12.994200 -0.242716 4.980390 -83.393800 -12.007900 -60.896300 5.348090 -0.000007 -0.000001 -56.723200 -48.627800 -121.231000 24.328600 0.000019 0.000005 0.279618 0.204043 -53.880300 22.291600 -0.000001 0.000005 17.899000 5.577660 -10.087200 12.994500 -0.242716 -4.980390 93.340300 -6.895100 -64.072500 -5.348130 -0.000001 -0.000004 -63.699400 -45.861300 -129.995000 -24.328900 0.000322 -0.000009 -4.924150 -4.393780 -48.349000 -22.291500 -0.000108 -0.000004 17.818500 5.439030 -4.251800 -2.192480 -6.469440 -0.000000 -169.267000 -15.707500 -3.619900 39.081100 -0.000007 -0.000012 -0.154379 0.424033 20.005400 40.985400 -0.000006 -0.000013 -6.720500 0.911342 -62.225700 11.754300 -0.000000 0.000003 -0.000136 -0.001333 -16.628400 -2.192510 6.469440 -0.000001 174.398000 20.938100 178.996000 -39.081100 -0.002282 -0.040193 0.038813 -0.108259 18.149800 -40.985400 0.000008 0.000006 -1.051510 1.907260 -62.848200 -11.754300 -0.000006 -0.000006 -0.004588 -0.057418 -18.909100
0.000000 0.000000 0.000000 0.000000 0.000000 -0.000000 -0.624657 92.253900 -1.503310 87.942400 0.221016 2.317720 15.735700 0.000005 -0.000001 83.295500 87.159900 -83.209700 8.984550 -0.406207 -0.000000 -2.124310 -0.670362 0.159139 16.377300 -0.000001 -0.000001 1.145180 -2.518530 -0.532433 6.456720 -0.000001 -0.000000 -3.689660 -3.243620 5.563570 12.994200 -0.242716 4.980390 -83.369400 -12.068500 -60.926800 5.348090 -0.000007 -0.000001 -57.064700 -47.865000 -121.793000 24.328600 0.000019 0.000005 -0.121687 -0.086054 -54.739200 22.291600 -0.000001 0.000005 17.840300 5.580990 -10.265200 12.994500 -0.242716 -4.980390 93.331100 -6.864560 -64.035400 -5.348130 -0.000001 -0.000004 -63.189500 -45.802200 -129.721000 -24.328900 0.000322 -0.000009 -4.989790 -4.382870 -48.797800 -22.291500 -0.000108 -0.000004 17.707600 5.440320 -4.297200 -2.192480 -6.469440 -0.000000 -169.315000 -15.685800 -3.608530 39.081100 -0.000007 -0.000012 -0.155672 0.427136 20.024700 40.985400 -0.000006 -0.000013 -6.700770 0.873302 -62.202000 11.754300 -0.000000 0.000003 -0.000135 -0.001332 -16.628300 -2.192510 6.469440 -0.000001 174.330000 20.878300 179.049000 -39.081100 -0.002282 -0.040193 0.037804 -0.105382 18.117300 -40.985400 0.000008 0.000006 -1.121130 1.895310 -62.845100 -11.754300 -0.000006 -0.000006 -0.004388 -0.055414 -18.827400
0.000000 0.000000 0.000000 0.000000 0.000000 -0.000000 -0.607951 92.254900 -1.565150 87.928900 0.190705 2.347680 15.735700 0.000005 -0.000001 82.934000 87.152100 -82.855000 8.984550 -0.406207 -0.000000 -2.113030 -0.707272 0.144978 16.377300 -0.000001 -0.000001 1.131640 -2.553800 -0.541032 6.456720 -0.000001 -0.000000 -3.770150 -3.293550 5.569640 12.994200 -0.242716 4.980390 -83.402800 -11.988800 -60.891900 5.348090 -0.000007 -0.000001 -57.019400 -47.673400 -121.322000 24.328600 0.000019 0.000005 -0.800224 -0.563060 -54.872100 22.291600 -0.000001 0.000005 17.998800 5.583630 -10.408600 12.994500 -0.242716 -4.980390 93.282200 -6.744700 -63.973700 -5.348130 -0.000001 -0.000004 -62.526200 -46.120900 -128.534000 -24.328900 0.000322 -0.000009 -4.963840 -4.368480 -48.742200 -22.291500 -0.000108 -0.000004 17.674700 5.441410 -4.335340 -2.192480 -6.469440 -0.000000 -169.320000 -15.661800 -3.648370 39.081100 -0.000007 -0.000012 -0.154255 0.421998 20.079300 40.985400 -0.000006 -0.000013 -6.682290 0.847123 -62.194500 11.754300 -0.000000 0.000003 -0.000121 -0.001212 -16.623900 -2.192510 6.469440 -0.000001 174.344000 20.802400 179.022000 -39.081100 -0.002282 -0.040193 0.036838 -0.102405 18.121100 -40.985400 0.000008 0.000006 -1.185520 1.866350 -62.794900 -11.754300 -0.000006 -0.000006 -0.004612 -0.057665 -18.919100
0.000000 0.000000 0.000000 0.000000 0.000000 -0.000000 -0.612518 92.256600 -1.628820 87.901300 0.139515 2.319810 15.735700 0.000005 -0.000001 82.395500 87.158700 -82.331000 8.984550 -0.406207 -0.000000 -2.133030 -0.757369 0.114855 16.377300 -0.000001 -0.000001 1.075810 -2.584400 -0.541931 6.456720 -0.000001 -0.000000 -3.846750 -3.273120 5.536340 12.994200 -0.242716 4.980390 -83.445700 -11.905700 -60.885000 5.348090 -0.000007 -0.000001 -56.721100 -48.096400 -119.764000 24.328600 0.000019 0.000005 -0.958578 -0.682154 -54.567400 22.291600 -0.000001 0.000005 18.127300 5.584010 -10.428900 12.994500 -0.242716 -4.980390 93.178000 -6.515250 -63.925500 -5.348130 -0.000001 -0.000004 -61.880200 -46.623300 -126.616000 -24.328900 0.000322 -0.000009 -4.892530 -4.373510 -48.296000 -22.291500 -0.000108 -0.000004 17.719700 5.440160 -4.291250 -2.192480 -6.469440 -0.000000 -169.300000 -15.732800 -3.729560 39.081100 -0.000007 -0.000012 -0.156025 0.425984 20.116400 40.985400 -0.000006 -0.000013 -6.673170 0.862500 -62.169300 11.754300 -0.000000 0.000003 -0.000130 -0.001286 -16.626600 -2.192510 6.469440 -0.000001 174.405000 20.686000 178.944000 -39.081100 -0.002282 -0.040193 0.034364 -0.094921 18.107700 -40.985400 0.000008 0.000006 -1.241460 1.812430 -62.745800 -11.754300 -0.000006 -0.000006 -0.004302 -0.054543 -18.791900
